:SAMPLES-PER-SECOND 30
:FULLY-SPECIFIED
:DEGREES
132
root  -37.7012 41.1635 -1.02002 -159.811 -85.756 153.578
RightUpLeg  2.98068 -9.56996 -9.00181
RightLeg  10.3843 0.743336 1.03244
RightFoot  -5.6343 -0.116252 1.47687
RightToes  0.00048216 0.542163 -0.142577
Spine  4.32629 2.83694 5.64479
Spine1  9.45563 5.90023 -10.2324
HEad  -37.7267 -10.8949 12.9994
LeftShoulder1  8.18287 -13.7317 -41.1582
LeftArm  -11.5751 18.9605 -26.4108
LeftForeArm  38.7042 -32.1502 -4.90223
LeftHand  -0.25398 0.0180481 5.50724
RightShoulder  2.15027 5.36677 17.6685
RightArm  -10.2582 55.0392 52.5792
RightForeArm  169.487 59.6599 162.989
RightHand  -3.38581 10.0568 -25.4863
LeftUpLeg  4.25159 5.08701 0.570537
LeftLeg  4.7881 16.0659 -3.53223
LeftFoot  -2.99191 -0.187674 2.81844
LeftToes  1.06247e-005 4.65855e-005 -8.18501e-006
133
root  -37.8172 41.1561 -1.01708 -159.035 -85.8801 152.488
RightUpLeg  3.51244 -9.48897 -9.07836
RightLeg  10.4505 0.595082 0.909869
RightFoot  -5.8876 -0.12138 1.56157
RightToes  0.00048216 0.542163 -0.142577
Spine  3.76631 2.93579 5.49504
Spine1  9.35934 5.9005 -10.0342
HEad  -39.114 -10.7065 13.1521
LeftShoulder1  8.23829 -13.8206 -41.2298
LeftArm  -10.837 19.4442 -26.5462
LeftForeArm  37.9957 -29.9019 -4.42214
LeftHand  -0.25398 0.0180481 5.50724
RightShoulder  2.05026 5.21611 16.8778
RightArm  -10.9252 55.4732 52.5283
RightForeArm  169.797 59.4309 163.164
RightHand  -3.40422 9.93825 -25.8042
LeftUpLeg  4.72948 5.10738 0.559048
LeftLeg  4.88945 15.8963 -3.47502
LeftFoot  -3.2319 -0.178068 2.7869
LeftToes  1.06247e-005 4.65855e-005 -8.18501e-006
134
root  -37.9306 41.1506 -1.0278 -159.097 -86.0345 152.251
RightUpLeg  4.08307 -9.42408 -9.07282
RightLeg  10.4195 0.432921 0.837538
RightFoot  -6.08727 -0.120765 1.55905
RightToes  0.00048216 0.542163 -0.142577
Spine  3.23318 3.04471 5.44199
Spine1  9.31209 5.97383 -10.0419
HEad  -40.3722 -10.7348 13.3943
LeftShoulder1  8.29197 -13.9607 -41.1602
LeftArm  -9.84619 19.9319 -26.5601
LeftForeArm  37.0082 -27.7931 -4.00759
LeftHand  -0.25398 0.0180481 5.50724
RightShoulder  1.97509 5.01053 16.5346
RightArm  -11.6107 55.9155 52.162
RightForeArm  169.287 59.1161 163.317
RightHand  -3.40891 9.67847 -26.2589
LeftUpLeg  5.1795 5.18077 0.655182
LeftLeg  5.02355 15.6539 -3.40581
LeftFoot  -3.4704 -0.165936 2.71615
LeftToes  1.06247e-005 4.65855e-005 -8.18501e-006
135
root  -38.0389 41.1476 -1.05022 -159.13 -86.1684 152.124
RightUpLeg  4.50309 -9.41764 -9.05428
RightLeg  10.3658 0.332909 0.830011
RightFoot  -6.26026 -0.116414 1.49992
RightToes  0.00048216 0.542163 -0.142577
Spine  2.53748 3.15938 5.3958
Spine1  9.42902 6.10033 -10.1724
HEad  -41.5693 -10.8245 13.6783
LeftShoulder1  8.30079 -14.0646 -40.9432
LeftArm  -8.93822 20.3144 -26.6349
LeftForeArm  35.9493 -25.7572 -3.6243
LeftHand  -0.25398 0.0180481 5.50724
RightShoulder  1.91047 4.7684 16.4216
RightArm  -12.3334 56.398 51.6977
RightForeArm  168.742 58.7793 163.479
RightHand  -3.30994 9.18504 -26.3481
LeftUpLeg  5.47458 5.19948 0.729237
LeftLeg  5.13806 15.4767 -3.30208
LeftFoot  -3.6722 -0.152638 2.6078
LeftToes  1.06247e-005 4.65855e-005 -8.18501e-006
136
root  -38.1424 41.1467 -1.08137 -158.399 -86.2998 151.316
RightUpLeg  4.82567 -9.43937 -9.06264
RightLeg  10.3214 0.243625 0.842046
RightFoot  -6.43567 -0.111386 1.43108
RightToes  0.00048216 0.542163 -0.142577
Spine  1.73997 3.25494 5.2334
Spine1  9.67274 6.1961 -10.2099
HEad  -42.6569 -10.7992 13.9696
LeftShoulder1  8.27921 -14.1045 -40.7274
LeftArm  -8.39255 20.6451 -26.7853
LeftForeArm  35.0211 -23.8537 -3.29945
LeftHand  -0.25398 0.0180481 5.50724
RightShoulder  1.84612 4.58296 16.131
RightArm  -13.0513 56.7896 51.3616
RightForeArm  168.81 58.5377 163.633
RightHand  -3.20677 8.7955 -26.231
LeftUpLeg  5.69571 5.15321 0.741749
LeftLeg  5.1882 15.3495 -3.18952
LeftFoot  -3.82571 -0.140906 2.49717
LeftToes  1.06247e-005 4.65855e-005 -8.18501e-006
137
root  -38.241 41.1461 -1.1172 -157.337 -86.4517 150.169
RightUpLeg  5.1684 -9.42885 -9.05804
RightLeg  10.2417 0.0868016 0.832651
RightFoot  -6.59456 -0.108211 1.39122
RightToes  0.00048216 0.542163 -0.142577
Spine  0.999725 3.31466 5.01189
Spine1  9.90194 6.23248 -10.1541
HEad  -43.4074 -10.7121 14.1492
LeftShoulder1  8.26192 -14.1211 -40.5931
LeftArm  -8.25951 21.0121 -26.8601
LeftForeArm  34.4512 -22.164 -3.1603
LeftHand  -0.25398 0.0180481 5.50724
RightShoulder  1.80048 4.53411 15.6635
RightArm  -13.6662 57.0049 51.1238
RightForeArm  168.969 58.4351 163.709
RightHand  -3.21604 8.78339 -26.3233
LeftUpLeg  5.92916 5.12348 0.770212
LeftLeg  5.20665 15.1851 -3.10745
LeftFoot  -3.95557 -0.131105 2.40762
LeftToes  1.06247e-005 4.65855e-005 -8.18501e-006
138
root  -38.3327 41.1457 -1.15377 -156.737 -86.5862 149.51
RightUpLeg  5.48123 -9.38972 -9.0109
RightLeg  10.1243 -0.0898199 0.817293
RightFoot  -6.7092 -0.107611 1.39103
RightToes  0.00048216 0.542163 -0.142577
Spine  0.348408 3.35772 4.90437
Spine1  10.054 6.28436 -10.2354
HEad  -43.8735 -10.648 14.1963
LeftShoulder1  8.23684 -14.1343 -40.426
LeftArm  -8.33321 21.3785 -26.8346
LeftForeArm  34.1762 -20.717 -3.21268
LeftHand  -0.25398 0.0180481 5.50724
RightShoulder  1.79256 4.57992 15.417
RightArm  -14.1688 57.1661 50.7806
RightForeArm  168.664 58.3982 163.705
RightHand  -3.29265 8.98899 -26.5556
LeftUpLeg  6.12389 5.1535 0.85859
LeftLeg  5.2381 14.9891 -3.07111
LeftFoot  -4.07785 -0.125594 2.36115
LeftToes  1.06247e-005 4.65855e-005 -8.18501e-006
139
root  -38.4149 41.1453 -1.19128 -156.411 -86.685 149.183
RightUpLeg  5.68499 -9.38619 -8.95945
RightLeg  10.0442 -0.199839 0.828671
RightFoot  -6.79938 -0.108401 1.41154
RightToes  0.00048216 0.542163 -0.142577
Spine  -0.249335 3.40623 4.91409
Spine1  10.1982 6.39827 -10.5092
HEad  -44.3387 -10.5916 14.2632
LeftShoulder1  8.1816 -14.1363 -40.1252
LeftArm  -8.51292 21.6622 -26.8543
LeftForeArm  33.9507 -19.5517 -3.32654
LeftHand  -0.25398 0.0180481 5.50724
RightShoulder  1.79829 4.56658 15.5354
RightArm  -14.6005 57.4627 50.3432
RightForeArm  168.344 58.3225 163.723
RightHand  -3.33118 9.11913 -26.6231
LeftUpLeg  6.23767 5.21684 0.970784
LeftLeg  5.28005 14.7948 -3.07281
LeftFoot  -4.18355 -0.124504 2.37167
LeftToes  1.06247e-005 4.65855e-005 -8.18501e-006
140
root  -38.4855 41.1452 -1.23297 -155.429 -86.8025 148.2
RightUpLeg  5.84168 -9.44547 -8.94127
RightLeg  10.0416 -0.27525 0.858733
RightFoot  -6.8995 -0.108658 1.42239
RightToes  0.00048216 0.542163 -0.142577
Spine  -0.769024 3.45322 4.81861
Spine1  10.4044 6.49466 -10.666
HEad  -44.8533 -10.5467 14.4454
LeftShoulder1  8.13509 -14.152 -39.8367
LeftArm  -8.96286 21.8923 -26.9685
LeftForeArm  33.858 -18.747 -3.40887
LeftHand  -0.25398 0.0180481 5.50724
RightShoulder  1.77121 4.41176 15.6363
RightArm  -14.9123 57.8969 50.1155
RightForeArm  168.465 58.195 163.81
RightHand  -3.3322 9.12468 -26.6212
LeftUpLeg  6.32688 5.26436 1.06059
LeftLeg  5.32525 14.5869 -3.06991
LeftFoot  -4.26523 -0.124081 2.39086
LeftToes  1.06247e-005 4.65855e-005 -8.18501e-006
141
root  -38.545 41.1452 -1.27752 -153.618 -86.967 146.341
RightUpLeg  6.03367 -9.5247 -8.93935
RightLeg  10.064 -0.392947 0.880975
RightFoot  -6.99851 -0.106969 1.40108
RightToes  0.00048216 0.542163 -0.142577
Spine  -1.17535 3.49228 4.47939
Spine1  10.6354 6.48538 -10.4207
HEad  -45.215 -10.6014 14.6104
LeftShoulder1  8.16269 -14.2197 -39.817
LeftArm  -9.55459 22.1498 -27.0311
LeftForeArm  34.0622 -18.322 -3.41424
LeftHand  -0.25398 0.0180481 5.50724
RightShoulder  1.70257 4.20076 15.3311
RightArm  -15.0394 58.2969 50.2842
RightForeArm  168.675 58.1134 163.877
RightHand  -3.36269 9.15053 -26.8067
LeftUpLeg  6.42896 5.24687 1.1026
LeftLeg  5.38935 14.3997 -2.99315
LeftFoot  -4.32849 -0.119142 2.33802
LeftToes  1.06247e-005 4.65855e-005 -8.18501e-006
142
root  -38.598 41.1454 -1.31837 -151.941 -87.1173 144.61
RightUpLeg  6.23168 -9.58343 -8.92744
RightLeg  10.0512 -0.523198 0.902134
RightFoot  -7.06644 -0.103177 1.34466
RightToes  0.00048216 0.542163 -0.142577
Spine  -1.49006 3.54349 4.04866
Spine1  10.812 6.4137 -9.90873
HEad  -45.4402 -10.7739 14.6214
LeftShoulder1  8.25809 -14.3146 -40.0918
LeftArm  -9.88984 22.3991 -26.915
LeftForeArm  34.4423 -18.1489 -3.38977
LeftHand  -0.25398 0.0180481 5.50724
RightShoulder  1.62531 4.04357 14.7146
RightArm  -15.0906 58.5669 50.6418
RightForeArm  168.726 58.1572 163.855
RightHand  -3.42146 9.28761 -27.0112
LeftUpLeg  6.51503 5.16102 1.09994
LeftLeg  5.46453 14.3137 -2.83669
LeftFoot  -4.38103 -0.109815 2.21507
LeftToes  1.06247e-005 4.65855e-005 -8.18501e-006
